<?xml version="1.0" encoding="iso-8859-1"?>
<!-- Generator: Adobe Illustrator 19.0.0, SVG Export Plug-In . SVG Version: 6.00 Build 0)  -->
<svg version="1.1" id="Capa_1" xmlns="http://www.w3.org/2000/svg" xmlns:xlink="http://www.w3.org/1999/xlink" x="0px" y="0px"
	 viewBox="0 0 512 512" style="enable-background:new 0 0 512 512;" xml:space="preserve">
<g>
	<g>
		<path style="fill:#EEF0F0;" d="M208.119,193.232c-4.142,0-7.5,3.358-7.5,7.5v8.666c0,4.142,3.358,7.5,7.5,7.5c4.142,0,7.5-3.358,7.5-7.5v-8.666
			C215.619,196.59,212.261,193.232,208.119,193.232z"/>
	</g>
</g>
<g>
	<g>
		<path style="fill:#EEF0F0;"  d="M303.878,193.232c-4.142,0-7.5,3.358-7.5,7.5v8.666c0,4.142,3.358,7.5,7.5,7.5c4.142,0,7.5-3.358,7.5-7.5v-8.666
			C311.378,196.59,308.02,193.232,303.878,193.232z"/>
	</g>
</g>
<g>
	<g>
		<path style="fill:#EEF0F0;"  d="M423.528,355.428c4.214-41.898-17.356-66.316-36.415-79.472c-9.121-6.295-18.167-10.336-24.151-12.617
			c-3.94-1.502-6.812-2.454-8.962-3.021c-0.051-0.052-0.098-0.109-0.149-0.161c-1.099-1.124-2.868-2.847-4.876-4.505
			c2.577-6.7,4.904-13.755,6.909-21.167c17.431-0.483,30.622-6.237,39.208-17.149c14.809-18.819,11.833-47.901,6.729-68.984
			c-1.76-7.27-8.224-12.347-15.719-12.347c-4.609,0-9.01,2.001-12.076,5.491l-14.372,16.36
			c-19.202-57.783-66.178-122.811-86.585-149.431C268.964,3.071,262.742,0,255.998,0c-6.743,0-12.965,3.071-17.07,8.426
			c-7.981,10.41-15.88,21.245-23.479,32.205c-2.36,3.404-1.515,8.077,1.89,10.437c3.404,2.36,8.077,1.514,10.437-1.89
			c7.464-10.764,15.222-21.404,23.058-31.625c1.242-1.623,3.125-2.553,5.165-2.553c2.04,0,3.923,0.93,5.167,2.552
			c20.473,26.706,68.358,92.961,85.685,149.475c-14.789,2.377-48.309,7.001-86.8,7.31c-2.667,0.025-5.402,0.022-8.094,0
			c-38.451-0.31-72.008-4.936-86.809-7.312c8.099-26.463,23.716-57.917,46.512-93.649c2.228-3.492,1.203-8.129-2.289-10.356
			c-3.49-2.228-8.128-1.204-10.356,2.289c-22.178,34.763-37.816,65.81-46.667,92.552l-14.375-16.364
			c-3.065-3.489-7.467-5.49-12.076-5.49c-7.496,0-13.959,5.078-15.719,12.347c-5.103,21.079-8.077,50.157,6.733,68.979
			c8.586,10.913,21.775,16.668,39.205,17.153c2.007,7.422,4.339,14.486,6.919,21.195c-1.488,1.224-3.198,2.77-5.051,4.683
			c-5.812,1.617-21.636,6.764-36.8,18.272c-17.246,13.088-36.713,36.981-32.714,76.795c-8.61,17.925-5.503,29.924-1.252,36.912
			c5.883,9.672,17.478,15.446,31.019,15.447c3.093,0,6.145-0.323,9.1-0.926c-0.125,0.052,0.239,2.397,0.261,2.61
			c1.738,16.951,15.869,29.733,32.869,29.733h5.288v22.435c-11.648,3.28-20.214,13.992-20.214,26.675V504.5
			c0,4.142,3.358,7.5,7.5,7.5h56.423c12.196,0,22.118-9.926,22.118-22.127v-50.665h48.84v50.665
			c0,12.201,9.922,22.127,22.117,22.127h56.424c4.142,0,7.5-3.358,7.5-7.5v-16.182c0-12.683-8.566-23.395-20.214-26.675v-22.435
			h5.284c17,0,31.13-12.783,32.87-29.739c0.089-0.868,0.176-1.736,0.26-2.605c2.955,0.602,6.009,0.926,9.104,0.926
			c13.537,0,25.13-5.773,31.014-15.444C429.033,385.358,432.141,373.357,423.528,355.428z M360.274,214.702
			c2.242-12.826,3.398-25.838,3.544-38.855l21.478-24.45c0.241-0.274,0.482-0.391,0.807-0.391c0.218,0,0.943,0.063,1.14,0.876
			c3.538,14.615,7.731,41.349-3.938,56.179c-5.173,6.574-13.016,10.271-23.873,11.224
			C359.731,217.762,360.011,216.232,360.274,214.702z M128.697,208.058c-11.671-14.834-7.479-41.563-3.942-56.175
			c0.197-0.813,0.922-0.876,1.14-0.876c0.325,0,0.566,0.117,0.807,0.39l21.479,24.451c0.011,1.01,0.044,2.016,0.067,3.023
			c0.315,13.55,1.71,27.109,4.319,40.414C141.712,218.33,133.87,214.632,128.697,208.058z M244.518,189.231
			c0.081-0.001,4.929,0.086,7.273,0.106c4.556,0.037,9.112,0.003,13.668-0.072c0.671-0.011,1.342-0.035,2.013-0.035
			c36.126-0.768,66.609-4.941,81.173-7.283c-0.042,1.127-0.085,2.254-0.144,3.376c-0.614,11.704-2.134,23.291-4.56,34.756
			c-0.163,0.759-0.339,1.511-0.51,2.267c-0.06,0.037-0.119,0.074-0.179,0.111c-9.604,5.88-21.344,8.005-32.413,5.945
			c-0.118-0.022-0.235-0.045-0.352-0.068c-6.095-1.179-12.084-3.365-17.425-6.541c-0.02-0.012-0.039-0.023-0.058-0.034
			c-0.902-1.681-1.929-3.194-3.072-4.548c-3.974-4.79-10.095-8.359-19.947-8.359c-4.164,0-8.757,0.637-13.987,1.943
			c-5.23-1.306-9.822-1.943-13.988-1.943c-9.875,0-16.002,3.586-19.975,8.392c-1.157,1.4-2.183,2.914-3.042,4.514
			c-0.017,0.01-0.033,0.02-0.05,0.03c-4.804,2.855-10.134,4.882-15.567,6.154c-0.023,0.005-0.046,0.01-0.069,0.015
			c-11.747,2.748-24.261,0.801-34.564-5.5c-0.059-0.036-0.118-0.073-0.177-0.11c-0.171-0.756-0.348-1.509-0.511-2.269
			c-2.456-11.439-3.953-23.07-4.559-34.753c-0.059-1.123-0.102-2.25-0.144-3.377C177.916,184.29,208.395,188.463,244.518,189.231z
			 M205.075,255.941c4.841,7.189,14.239,9.955,22.506,9.955c8.44,0,17.986-2.757,28.418-8.2c3.041,1.586,6.003,2.938,8.888,4.066
			c7.012,2.744,13.548,4.134,19.532,4.134c0.095,0,0.181-0.009,0.276-0.01c15.156-0.11,21.549-8.933,22.23-9.946
			c1.05-1.56,1.485-3.523,1.183-5.378c-0.516-3.168-3.09-5.736-6.265-6.224c-1.508-0.232-2.115-2.045-2.568-3.27
			c-0.024-0.064-0.048-0.131-0.072-0.197c0.216,0.071,0.446,0.136,0.665,0.206c6.219,1.972,12.772,3.103,19.302,3.159
			c6.308,0.054,12.75-0.919,18.774-2.885c0.084-0.027,0.17-0.051,0.255-0.079c-6.311,19.07-14.863,35.325-23.857,48.823
			c-15.212,22.732-35.149,43.291-58.343,57.977c-7.324-4.637-24.844-16.846-42.686-37.451
			c-17.439-20.139-31.118-43.904-39.522-69.352c0.474,0.158,0.954,0.299,1.432,0.444c6.73,2.038,13.804,2.821,20.819,2.404
			c5.655-0.336,11.342-1.472,16.75-3.24c-0.069,0.193-0.141,0.385-0.216,0.575c-0.443,1.119-1.053,2.675-2.421,2.886
			c-1.865,0.288-3.591,1.295-4.757,2.779C203.421,249.633,203.288,253.288,205.075,255.941z M224.707,250.705
			c2.272-3.886,3.415-8.448,4.383-12.319c1.404-5.609,3.182-13.215,9.939-14.324c0.982-0.162,1.989-0.212,2.983-0.212
			c3.281,0,7.323,0.649,12.011,1.93c1.294,0.354,2.658,0.354,3.952,0c4.689-1.28,8.73-1.93,12.015-1.93
			c2.052,0,4.314,0.2,6.191,1.186c0.014,0.007,0.03,0.013,0.044,0.021c4.662,2.411,5.539,8.757,6.683,13.328
			c0.969,3.87,2.111,8.433,4.383,12.319c-0.869,0.12-1.825,0.19-2.874,0.19c-4.767,0.002-10.472-1.453-16.776-4.237
			c-2.551-1.126-5.197-2.464-7.923-4.021c-2.305-1.316-5.134-1.316-7.438,0c-9.462,5.403-18.003,8.259-24.699,8.259
			C227.275,250.895,224.769,250.599,224.707,250.705z M118.232,392.791c-8.134,0-15.108-3.159-18.201-8.243
			c-3.59-5.902-1.89-13.692,0.873-20.227h24.625c-0.036,1.963-0.048,3.969-0.046,5.998c0.006,7.099,0.207,14.205,0.657,21.29
			c0.003,0.046,0.005,0.091,0.008,0.138C123.63,392.43,120.932,392.791,118.232,392.791z M126.497,345.338
			c-0.084,0.983-0.296,3.642-0.32,3.984h-23.148c-1.207-24.172,7.79-43.8,26.801-58.416c4.194-3.224,8.487-5.887,12.546-8.063
			C135.155,297.212,128.874,317.362,126.497,345.338z M216.579,489.873c0,3.93-3.193,7.127-7.118,7.127h-48.923v-8.682
			c0-7.011,5.704-12.715,12.714-12.715h43.327V489.873z M216.579,460.604h-35.827v-21.396h35.827V460.604z M351.46,488.319V497
			h-48.924c-3.924,0-7.117-3.197-7.117-7.127v-14.269h43.327C345.757,475.604,351.46,481.308,351.46,488.319z M295.419,460.604
			v-21.396h35.827v21.396H295.419z M351.533,424.209H160.465c-6.926-0.001-12.98-3.894-16.002-9.72h223.07
			C364.511,420.316,358.457,424.209,351.533,424.209z M371.513,369.978h-37.527c-4.142,0-7.5,3.358-7.5,7.5
			c0,4.142,3.358,7.5,7.5,7.5h37.195c-0.01,0.232-0.019,0.46-0.03,0.693c-0.218,4.61-0.508,9.218-0.885,13.818h-228.53
			c-0.166-1.996-0.906-14.273-0.916-14.511h165.179c4.142,0,7.5-3.358,7.5-7.5c0-4.142-3.358-7.5-7.5-7.5H140.488
			c0.002-3.368,0.063-6.734,0.175-10.101c1.022-30.662,5.882-66.812,28.568-89.575c29.96,63.775,80.951,91.9,83.204,93.118
			c2.204,1.191,4.927,1.19,7.13,0c2.252-1.217,53.244-29.342,83.205-93.117c0.773,0.776,1.598,1.659,2.456,2.637
			c6.431,7.331,11.183,16.077,14.747,25.118c7.73,19.585,10.647,40.91,11.366,61.85
			C371.548,363.259,371.512,366.622,371.513,369.978z M373.469,291.328c-0.403-0.995-2.924-6.677-3.828-8.488
			c3.907,2.1,8.039,4.658,12.107,7.745c19.299,14.646,28.438,34.382,27.222,58.736h-23.148
			C384.091,324.501,379.33,305.627,373.469,291.328z M411.967,384.55c-3.092,5.083-10.066,8.24-18.201,8.24
			c-2.698,0-5.399-0.362-7.916-1.045c0.002-0.031,0.003-0.061,0.005-0.092c0.493-8.224,0.72-16.463,0.633-24.702
			c-0.009-0.875-0.005-1.761-0.021-2.63h24.626C413.857,370.857,415.557,378.648,411.967,384.55z"/>
	</g>
</g>
<g>
</g>
<g>
</g>
<g>
</g>
<g>
</g>
<g>
</g>
<g>
</g>
<g>
</g>
<g>
</g>
<g>
</g>
<g>
</g>
<g>
</g>
<g>
</g>
<g>
</g>
<g>
</g>
<g>
</g>
</svg>
