<?xml version="1.0" encoding="UTF-8" standalone="no"?>
<!-- Created with Inkscape (http://www.inkscape.org/) -->

<svg
   xmlns:dc="http://purl.org/dc/elements/1.1/"
   xmlns:cc="http://creativecommons.org/ns#"
   xmlns:rdf="http://www.w3.org/1999/02/22-rdf-syntax-ns#"
   xmlns:svg="http://www.w3.org/2000/svg"
   xmlns="http://www.w3.org/2000/svg"
   xmlns:sodipodi="http://sodipodi.sourceforge.net/DTD/sodipodi-0.dtd"
   xmlns:inkscape="http://www.inkscape.org/namespaces/inkscape"
   width="97.366669mm"
   height="65.619156mm"
   viewBox="0 0 97.366669 65.619156"
   version="1.1"
   id="svg244"
   inkscape:version="0.92.4 (f8dce91, 2019-08-02)"
   sodipodi:docname="elf-bust.svg">
  <defs
     id="defs238">
    <clipPath
       clipPathUnits="userSpaceOnUse"
       id="clipPath174">
      <rect
         style="opacity:0.85;fill:#930000;fill-opacity:1;stroke:#554400;stroke-width:0.35914344;stroke-miterlimit:4;stroke-dasharray:none;stroke-dashoffset:0;stroke-opacity:1"
         id="rect176"
         width="370.51761"
         height="248.0188"
         x="61.84045"
         y="-0.0093994522" />
    </clipPath>
    <clipPath
       clipPathUnits="userSpaceOnUse"
       id="clipPath178">
      <rect
         style="opacity:0.85;fill:#930000;fill-opacity:1;stroke:#554400;stroke-width:0.35914344;stroke-miterlimit:4;stroke-dasharray:none;stroke-dashoffset:0;stroke-opacity:1"
         id="rect180"
         width="370.51761"
         height="248.0188"
         x="61.84045"
         y="-0.0093994522" />
    </clipPath>
    <clipPath
       clipPathUnits="userSpaceOnUse"
       id="clipPath182">
      <rect
         style="opacity:0.85;fill:#930000;fill-opacity:1;stroke:#554400;stroke-width:0.35914344;stroke-miterlimit:4;stroke-dasharray:none;stroke-dashoffset:0;stroke-opacity:1"
         id="rect184"
         width="370.51761"
         height="248.0188"
         x="61.84045"
         y="-0.0093994522" />
    </clipPath>
    <clipPath
       clipPathUnits="userSpaceOnUse"
       id="clipPath186">
      <rect
         style="opacity:0.85;fill:#930000;fill-opacity:1;stroke:#554400;stroke-width:0.35914344;stroke-miterlimit:4;stroke-dasharray:none;stroke-dashoffset:0;stroke-opacity:1"
         id="rect188"
         width="370.51761"
         height="248.0188"
         x="61.84045"
         y="-0.0093994522" />
    </clipPath>
    <clipPath
       clipPathUnits="userSpaceOnUse"
       id="clipPath190">
      <rect
         style="opacity:0.85;fill:#930000;fill-opacity:1;stroke:#554400;stroke-width:0.35914344;stroke-miterlimit:4;stroke-dasharray:none;stroke-dashoffset:0;stroke-opacity:1"
         id="rect192"
         width="370.51761"
         height="248.0188"
         x="61.84045"
         y="-0.0093994522" />
    </clipPath>
  </defs>
  <sodipodi:namedview
     id="base"
     pagecolor="#ffffff"
     bordercolor="#666666"
     borderopacity="1.0"
     inkscape:pageopacity="0.0"
     inkscape:pageshadow="2"
     inkscape:zoom="0.35"
     inkscape:cx="398.28571"
     inkscape:cy="-313.13816"
     inkscape:document-units="mm"
     inkscape:current-layer="layer1"
     showgrid="false"
     fit-margin-top="0"
     fit-margin-left="0"
     fit-margin-right="0"
     fit-margin-bottom="0"
     inkscape:window-width="1680"
     inkscape:window-height="995"
     inkscape:window-x="0"
     inkscape:window-y="27"
     inkscape:window-maximized="1" />
  <metadata
     id="metadata241">
    <rdf:RDF>
      <cc:Work
         rdf:about="">
        <dc:format>image/svg+xml</dc:format>
        <dc:type
           rdf:resource="http://purl.org/dc/dcmitype/StillImage" />
        <dc:title></dc:title>
      </cc:Work>
    </rdf:RDF>
  </metadata>
  <g
     inkscape:label="Layer 1"
     inkscape:groupmode="layer"
     id="layer1"
     transform="translate(-0.45357212,-0.36304229)">
    <g
       transform="matrix(0.26458333,0,0,0.26458333,-16.479761,0.36304229)"
       id="g121"
       clip-path="url(#clipPath190)">
      <path
         inkscape:connector-curvature="0"
         style="fill:#ffa64d"
         d="M 248,0 C 192.344,0 145.8,39.856 137.32,94.784 L 168,104 V 88 h 8 l 8.768,7.016 C 204.984,111.184 230.104,120 256,120 V 96 c 20.768,15.576 46.032,24 72,24 v -8 l 31.672,-8.608 C 355.256,45.416 306.208,0 248,0 Z"
         id="path117" />
      <path
         inkscape:connector-curvature="0"
         style="fill:#ffa64d"
         d="m 248,352 v 0 c -13.256,0 -24,-10.744 -24,-24 v 0 c 0,-13.256 10.744,-24 24,-24 v 0 c 13.256,0 24,10.744 24,24 v 0 c 0,13.256 -10.744,24 -24,24 z"
         id="path119" />
    </g>
    <path
       transform="matrix(0.26458333,0,0,0.26458333,-16.479761,0.36304229)"
       inkscape:connector-curvature="0"
       style="fill:#333333"
       d="M 414.648,80 C 387.296,80 360.384,86.416 336,98.56 V 88 h -16 v 48 c 0,39.704 -32.304,72 -72,72 -39.696,0 -72,-32.296 -72,-72 V 88 H 160 V 98.56 C 135.616,86.416 108.704,80 81.352,80 H 64 l 29.368,39.168 c 2.392,3.184 4.344,6.672 5.816,10.344 9.352,23.376 31.672,38.488 56.856,38.488 h 10.072 c 3.976,10.128 9.768,19.32 16.992,27.224 l -12.424,2.488 c -9.168,1.832 -17.976,5.768 -25.464,11.384 C 129.424,220.928 120,239.784 120,259.512 V 296 h 8 v 44 c 0,11.232 6.696,20.88 16.264,25.336 l -3.96,6.6 8.72,3.496 c 0.672,0.264 7.512,2.936 18.976,6.048 V 496 h 72 V 391.864 c 2.64,0.072 5.28,0.136 8,0.136 2.72,0 5.36,-0.064 8,-0.136 V 496 h 72 V 381.48 c 11.464,-3.112 18.304,-5.784 18.976,-6.048 l 8.72,-3.496 -3.96,-6.6 C 361.304,360.88 368,351.232 368,340 v -44 h 8 v -36.488 c 0,-19.736 -9.424,-38.584 -25.208,-50.424 -7.488,-5.616 -16.296,-9.552 -25.464,-11.384 l -12.432,-2.488 c 7.216,-7.904 13.016,-17.096 16.992,-27.224 h 10.072 c 25.184,0 47.504,-15.112 56.856,-38.496 1.464,-3.672 3.424,-7.16 5.808,-10.344 L 432,80 Z M 156.04,152 c -18.6,0 -35.088,-11.168 -42,-28.432 -1.984,-4.968 -4.632,-9.68 -7.864,-14 L 96.544,96.72 c 22.272,2.128 43.888,8.944 63.456,19.96 V 136 c 0,5.472 0.568,10.8 1.528,16 z m 115.48,68.712 C 269.328,231.696 259.624,240 248,240 c -11.624,0 -21.328,-8.304 -23.52,-19.288 7.496,2.088 15.36,3.288 23.52,3.288 8.16,0 16.024,-1.2 23.52,-3.288 z M 144,296 h 24 v 40 4 c 0,6.616 -5.384,12 -12,12 -6.616,0 -12,-5.384 -12,-12 z m 40,184 v -16 h 40 v 16 z m 40,-32 h -40 v -62.672 c 11.208,2.36 24.752,4.512 40,5.696 z m 48,32 v -16 h 40 v 16 z m 40,-32 h -40 v -56.968 c 15.248,-1.192 28.792,-3.336 40,-5.696 z m 40,-108 c 0,6.616 -5.384,12 -12,12 -6.616,0 -12,-5.384 -12,-12 v -4 -40 h 24 z M 341.184,221.888 C 352.968,230.728 360,244.792 360,259.512 V 280 h -32 v -32 h -16 v 40 32 h -48 v 16 h 48 v 4 c 0,10.944 6.376,20.344 15.552,24.944 C 311.672,369.512 282.992,376 248,376 c -34.992,0 -63.672,-6.488 -79.552,-11.056 9.176,-4.6 15.552,-14 15.552,-24.944 v -4 h 48 v -16 h -48 v -32 -40 h -16 v 32 h -32 v -20.488 c 0,-14.728 7.032,-28.792 18.816,-37.624 5.584,-4.184 12.16,-7.128 19,-8.496 l 24.432,-4.888 c 3.112,2.136 6.376,4.04 9.76,5.776 V 216 c 0,22.056 17.944,40 40,40 22.056,0 40,-17.944 40,-40 v -1.712 c 3.376,-1.736 6.648,-3.64 9.76,-5.776 L 322.2,213.4 c 6.832,1.368 13.4,4.304 18.984,8.488 z m 48.632,-112.32 c -3.232,4.32 -5.872,9.032 -7.856,14 -6.912,17.264 -23.4,28.432 -42,28.432 h -5.488 c 0.96,-5.2 1.528,-10.528 1.528,-16 v -19.328 c 19.568,-11.008 41.184,-17.832 63.456,-19.96 z"
       id="path123"
       clip-path="url(#clipPath186)" />
    <rect
       transform="matrix(0.26458333,0,0,0.26458333,-16.479761,0.36304229)"
       x="280"
       y="136"
       style="fill:#333333"
       width="16"
       height="16"
       id="rect125"
       clip-path="url(#clipPath182)" />
    <rect
       transform="matrix(0.26458333,0,0,0.26458333,-16.479761,0.36304229)"
       x="200"
       y="136"
       style="fill:#333333"
       width="16"
       height="16"
       id="rect127"
       clip-path="url(#clipPath178)" />
    <rect
       transform="matrix(0.26458333,0,0,0.26458333,-16.479761,0.36304229)"
       x="240"
       y="176"
       style="fill:#333333"
       width="16"
       height="16"
       id="rect129"
       clip-path="url(#clipPath174)" />
  </g>
</svg>
