<?xml version="1.0" encoding="iso-8859-1"?>
<!-- Generator: Adobe Illustrator 19.0.0, SVG Export Plug-In . SVG Version: 6.00 Build 0)  -->
<svg version="1.1" id="Capa_1" xmlns="http://www.w3.org/2000/svg" xmlns:xlink="http://www.w3.org/1999/xlink" x="0px" y="0px"
	 viewBox="0 0 496 496" style="enable-background:new 0 0 496 496;" xml:space="preserve">
<g>
	<path style="fill:#FFA64D;" d="M248,0c-55.656,0-102.2,39.856-110.68,94.784L168,104V88h8l8.768,7.016
		C204.984,111.184,230.104,120,256,120V96c20.768,15.576,46.032,24,72,24v-8l31.672-8.608C355.256,45.416,306.208,0,248,0z"/>
	<path style="fill:#FFA64D;" d="M248,352L248,352c-13.256,0-24-10.744-24-24l0,0c0-13.256,10.744-24,24-24l0,0
		c13.256,0,24,10.744,24,24l0,0C272,341.256,261.256,352,248,352z"/>
</g>
<g>
	<path style="fill:#333333;" d="M414.648,80c-27.352,0-54.264,6.416-78.648,18.56V88h-16v48c0,39.704-32.304,72-72,72
		s-72-32.296-72-72V88h-16v10.56C135.616,86.416,108.704,80,81.352,80H64l29.368,39.168c2.392,3.184,4.344,6.672,5.816,10.344
		C108.536,152.888,130.856,168,156.04,168h10.072c3.976,10.128,9.768,19.32,16.992,27.224l-12.424,2.488
		c-9.168,1.832-17.976,5.768-25.464,11.384C129.424,220.928,120,239.784,120,259.512V296h8v44c0,11.232,6.696,20.88,16.264,25.336
		l-3.96,6.6l8.72,3.496c0.672,0.264,7.512,2.936,18.976,6.048V496h72V391.864c2.64,0.072,5.28,0.136,8,0.136s5.36-0.064,8-0.136V496
		h72V381.48c11.464-3.112,18.304-5.784,18.976-6.048l8.72-3.496l-3.96-6.6C361.304,360.88,368,351.232,368,340v-44h8v-36.488
		c0-19.736-9.424-38.584-25.208-50.424c-7.488-5.616-16.296-9.552-25.464-11.384l-12.432-2.488
		c7.216-7.904,13.016-17.096,16.992-27.224h10.072c25.184,0,47.504-15.112,56.856-38.496c1.464-3.672,3.424-7.16,5.808-10.344
		L432,80H414.648z M156.04,152c-18.6,0-35.088-11.168-42-28.432c-1.984-4.968-4.632-9.68-7.864-14L96.544,96.72
		c22.272,2.128,43.888,8.944,63.456,19.96V136c0,5.472,0.568,10.8,1.528,16H156.04z M271.52,220.712
		C269.328,231.696,259.624,240,248,240s-21.328-8.304-23.52-19.288C231.976,222.8,239.84,224,248,224S264.024,222.8,271.52,220.712z
		 M144,296h24v40v4c0,6.616-5.384,12-12,12s-12-5.384-12-12V296z M184,480v-16h40v16H184z M224,448h-40v-62.672
		c11.208,2.36,24.752,4.512,40,5.696V448z M272,480v-16h40v16H272z M312,448h-40v-56.968c15.248-1.192,28.792-3.336,40-5.696V448z
		 M352,340c0,6.616-5.384,12-12,12s-12-5.384-12-12v-4v-40h24V340z M341.184,221.888c11.784,8.84,18.816,22.904,18.816,37.624V280
		h-32v-32h-16v40v32h-48v16h48v4c0,10.944,6.376,20.344,15.552,24.944C311.672,369.512,282.992,376,248,376
		s-63.672-6.488-79.552-11.056c9.176-4.6,15.552-14,15.552-24.944v-4h48v-16h-48v-32v-40h-16v32h-32v-20.488
		c0-14.728,7.032-28.792,18.816-37.624c5.584-4.184,12.16-7.128,19-8.496l24.432-4.888c3.112,2.136,6.376,4.04,9.76,5.776V216
		c0,22.056,17.944,40,40,40s40-17.944,40-40v-1.712c3.376-1.736,6.648-3.64,9.76-5.776L322.2,213.4
		C329.032,214.768,335.6,217.704,341.184,221.888z M389.816,109.568c-3.232,4.32-5.872,9.032-7.856,14
		c-6.912,17.264-23.4,28.432-42,28.432h-5.488c0.96-5.2,1.528-10.528,1.528-16v-19.328c19.568-11.008,41.184-17.832,63.456-19.96
		L389.816,109.568z"/>
	<rect x="280" y="136" style="fill:#333333;" width="16" height="16"/>
	<rect x="200" y="136" style="fill:#333333;" width="16" height="16"/>
	<rect x="240" y="176" style="fill:#333333;" width="16" height="16"/>
</g>
<g>
</g>
<g>
</g>
<g>
</g>
<g>
</g>
<g>
</g>
<g>
</g>
<g>
</g>
<g>
</g>
<g>
</g>
<g>
</g>
<g>
</g>
<g>
</g>
<g>
</g>
<g>
</g>
<g>
</g>
</svg>
