<svg width="225" height="200" version="1.1" viewBox="0 0 59.531 52.917" xmlns="http://www.w3.org/2000/svg">
<g transform="translate(0 -244.08)">
<g fill-opacity=".91667">
<path d="m26.458 290.39h6.6146v6.6146h-6.6146z"/>
<path d="m33.073 283.77h6.6146v6.6146h-6.6146z"/>
<path d="m39.688 277.16h6.6146v6.6146h-6.6146z"/>
<path d="m46.302 270.54h6.6146v6.6146h-6.6146z"/>
<path d="m52.917 263.93h6.6146v6.6146h-6.6146z"/>
<path d="m52.917 257.31h6.6146v6.6146h-6.6146z"/>
<path d="m52.917 250.7h6.6146v6.6146h-6.6146z"/>
<path d="m46.302 244.08h6.6146v6.6146h-6.6146z"/>
<path d="m39.688 244.08h6.6146v6.6146h-6.6146z"/>
<path d="m33.073 244.08h6.6146v6.6146h-6.6146z"/>
<path d="m19.844 244.08h6.6146v6.6146h-6.6146z"/>
<path d="m13.229 244.08h6.6146v6.6146h-6.6146z"/>
<path d="m0 250.7h6.6146v6.6146h-6.6146z"/>
<path d="m0 257.31h6.6146v6.6146h-6.6146z"/>
<path d="m0 263.93h6.6146v6.6146h-6.6146z"/>
<path d="m6.6146 270.54h6.6146v6.6146h-6.6146z"/>
<path d="m13.229 277.16h6.6146v6.6146h-6.6146z"/>
<path d="m19.844 283.77h6.6146v6.6146h-6.6146z"/>
<path d="m26.458 250.7h6.6146v6.6146h-6.6146z"/>
<path d="m6.6146 244.08h6.6146v6.6146h-6.6146z"/>
</g>
<g fill="#d60000">
<rect x="26.458" y="263.93" width="6.6146" height="6.6146" fill-opacity=".91667"/>
<rect x="33.073" y="263.93" width="6.6146" height="6.6146" fill-opacity=".91667"/>
<rect x="39.688" y="263.93" width="6.6146" height="6.6146" fill-opacity=".91667"/>
</g>
<rect x="46.302" y="263.93" width="6.6146" height="6.6146" fill="#fa0000" fill-opacity=".91667"/>
<rect x="39.688" y="257.31" width="6.6146" height="6.6146" fill="#d60000" fill-opacity=".91667"/>
<g fill="#fa0000" fill-opacity=".91667">
<rect x="39.688" y="250.7" width="6.6146" height="6.6146"/>
<rect x="46.302" y="250.7" width="6.6146" height="6.6146"/>
<rect x="46.302" y="257.31" width="6.6146" height="6.6146"/>
</g>
<g fill="#d60000" fill-opacity=".91667">
<rect x="39.688" y="270.54" width="6.6146" height="6.6146"/>
<rect x="33.073" y="270.54" width="6.6146" height="6.6146"/>
<rect x="33.073" y="257.31" width="6.6146" height="6.6146"/>
</g>
<rect x="33.073" y="250.7" width="6.6146" height="6.6146" fill="#fa0000" fill-opacity=".91667"/>
<g fill="#d60000" fill-opacity=".91667">
<rect x="26.458" y="257.31" width="6.6146" height="6.6146"/>
<rect x="19.844" y="257.31" width="6.6146" height="6.6146"/>
<rect x="19.844" y="250.7" width="6.6146" height="6.6146"/>
<rect x="13.229" y="250.7" width="6.6146" height="6.6146"/>
</g>
<rect x="6.6146" y="250.7" width="6.6146" height="6.6146" fill="#860000" fill-opacity=".91667"/>
<rect x="6.6146" y="257.31" width="6.6146" height="6.6146" fill="#860000" fill-opacity=".91667"/>
<rect x="13.229" y="257.31" width="6.6146" height="6.6146" fill="#d60000" fill-opacity=".91667"/>
<rect x="6.6146" y="263.93" width="6.6146" height="6.6146" fill="#860000" fill-opacity=".91667"/>
<rect x="13.229" y="263.93" width="6.6146" height="6.6146" fill="#d60000" fill-opacity=".91667"/>
<rect x="19.844" y="263.93" width="6.6146" height="6.6146" fill="#d60000" fill-opacity=".91667"/>
<rect x="13.229" y="270.54" width="6.6146" height="6.6146" fill="#860000" fill-opacity=".91667"/>
<rect x="19.844" y="270.54" width="6.6146" height="6.6146" fill="#d60000" fill-opacity=".91667"/>
<rect x="26.458" y="270.54" width="6.6146" height="6.6146" fill="#d60000" fill-opacity=".91667"/>
<rect x="19.844" y="277.16" width="6.6146" height="6.6146" fill="#860000" fill-opacity=".91667"/>
<rect x="26.458" y="277.16" width="6.6146" height="6.6146" fill="#d60000" fill-opacity=".91667"/>
<rect x="33.073" y="277.16" width="6.6146" height="6.6146" fill="#d60000" fill-opacity=".91667"/>
<rect x="26.458" y="283.77" width="6.6146" height="6.6146" fill="#860000" fill-opacity=".91667"/>
</g>
</svg>
