<?xml version="1.0" encoding="UTF-8"?>
<svg width="225" height="200" inkscape:version="0.92.4 (f8dce91, 2019-08-02)" sodipodi:docname="heart-white.svg" version="1.1" viewBox="0 0 59.531 52.917" xmlns="http://www.w3.org/2000/svg" xmlns:inkscape="http://www.inkscape.org/namespaces/inkscape" xmlns:sodipodi="http://sodipodi.sourceforge.net/DTD/sodipodi-0.dtd">
<sodipodi:namedview id="base" bordercolor="#666666" borderlayer="true" borderopacity="1.0" fit-margin-bottom="-0.8" fit-margin-left="0" fit-margin-right="0" fit-margin-top="0" inkscape:current-layer="layer1" inkscape:cx="92.898577" inkscape:cy="122.63085" inkscape:document-units="mm" inkscape:pageopacity="0.0" inkscape:pageshadow="2" inkscape:showpageshadow="false" inkscape:window-height="995" inkscape:window-maximized="1" inkscape:window-width="1680" inkscape:window-x="0" inkscape:window-y="27" inkscape:zoom="1" pagecolor="#ffffff" showgrid="true" units="px">
<inkscape:grid dotted="true" empspacing="1" originx="-9.9999991e-08" originy="-2.7197826e-05" spacingx="6.6145833" spacingy="6.6145833" type="xygrid"/>
</sodipodi:namedview>
<g transform="translate(-1e-7 -244.08)" inkscape:groupmode="layer" inkscape:label="Layer 1">
<g>
<rect x="26.458" y="250.7" width="6.6146" height="6.6146"/>
<rect x="13.229" y="244.08" width="6.6146" height="6.6146"/>
<rect x="6.6146" y="244.08" width="6.6146" height="6.6146"/>
<rect x="1e-7" y="250.7" width="6.6146" height="6.6146"/>
<rect x="1e-7" y="257.31" width="6.6146" height="6.6146"/>
<rect x="1e-7" y="263.93" width="6.6146" height="6.6146"/>
<rect x="6.6146" y="270.54" width="6.6146" height="6.6146"/>
<rect x="13.229" y="277.16" width="6.6146" height="6.6146"/>
<rect x="19.844" y="283.77" width="6.6146" height="6.6146"/>
<rect x="26.458" y="290.39" width="6.6146" height="6.6146"/>
<rect x="33.073" y="283.77" width="6.6146" height="6.6146"/>
<rect x="39.688" y="277.16" width="6.6146" height="6.6146"/>
<rect x="46.302" y="270.54" width="6.6146" height="6.6146"/>
<rect x="52.917" y="263.93" width="6.6146" height="6.6146"/>
<rect x="52.917" y="257.31" width="6.6146" height="6.6146"/>
<rect x="52.917" y="250.7" width="6.6146" height="6.6146"/>
<rect x="46.302" y="244.08" width="6.6146" height="6.6146"/>
<rect x="39.688" y="244.08" width="6.6146" height="6.6146"/>
<rect x="33.073" y="244.08" width="6.6146" height="6.6146"/>
<rect x="19.844" y="244.08" width="6.6146" height="6.6146"/>
</g>
<g fill="#fff">
<rect x="13.229" y="257.31" width="6.6146" height="6.6146"/>
<rect x="19.844" y="257.31" width="6.6146" height="6.6146"/>
<rect x="19.844" y="250.7" width="6.6146" height="6.6146"/>
<rect x="13.229" y="250.7" width="6.6146" height="6.6146"/>
<rect x="6.6146" y="250.7" width="6.6146" height="6.6146"/>
<rect x="6.6146" y="257.31" width="6.6146" height="6.6146"/>
<rect x="6.6146" y="263.93" width="6.6146" height="6.6146"/>
<rect x="13.229" y="263.93" width="6.6146" height="6.6146"/>
<rect x="19.844" y="263.93" width="6.6146" height="6.6146"/>
<rect x="13.229" y="270.54" width="6.6146" height="6.6146"/>
<rect x="19.844" y="270.54" width="6.6146" height="6.6146"/>
<rect x="19.844" y="277.16" width="6.6146" height="6.6146"/>
<rect x="26.458" y="283.77" width="6.6146" height="6.6146"/>
<rect x="26.458" y="277.16" width="6.6146" height="6.6146"/>
<rect x="26.458" y="270.54" width="6.6146" height="6.6146"/>
<rect x="26.458" y="263.93" width="6.6146" height="6.6146"/>
<rect x="26.458" y="257.31" width="6.6146" height="6.6146"/>
<rect x="33.073" y="250.7" width="6.6146" height="6.6146"/>
<rect x="33.073" y="257.31" width="6.6146" height="6.6146"/>
<rect x="33.073" y="263.93" width="6.6146" height="6.6146"/>
<rect x="33.073" y="270.54" width="6.6146" height="6.6146"/>
<rect x="33.073" y="277.16" width="6.6146" height="6.6146"/>
<rect x="39.688" y="270.54" width="6.6146" height="6.6146"/>
<rect x="39.688" y="263.93" width="6.6146" height="6.6146"/>
<rect x="39.688" y="257.31" width="6.6146" height="6.6146"/>
<rect x="39.688" y="250.7" width="6.6146" height="6.6146"/>
<rect x="46.302" y="250.7" width="6.6146" height="6.6146"/>
<rect x="46.302" y="257.31" width="6.6146" height="6.6146"/>
<rect x="46.302" y="263.93" width="6.6146" height="6.6146"/>
</g>
</g>
</svg>
