<svg id="Layer_3" enable-background="new 0 0 64 64" height="512" viewBox="0 0 64 64" width="512" xmlns="http://www.w3.org/2000/svg"><path d="m43.984 24.637c-.082 1.695-.493 3.303-1.165 4.768l-3.112-3.112c-.187-.188-.442-.293-.707-.293h-3.586l-3-3 2.222-2.222c1.321.345 2.618.8 3.88 1.374zm-4.702 9.363h-3.868l-3-3 3-3h3.172l3.211 3.211c-.702 1.047-1.548 1.986-2.515 2.789zm-11.868-4-3-3 3-3h3.172l3 3-3 3zm-12.828 0h-3.172l-2.64-2.64c1.519-1.572 3.253-2.925 5.138-4.033l3.674 3.673zm4.828-2h3.172l3 3-3 3h-3.172l-3-3zm9.171-8c1.254 0 2.492.098 3.713.288l-1.712 1.712h-3.172l-1.975-1.975c.206-.006.411-.025.618-.025zm-10.117 1.231c1.421-.474 2.878-.795 4.354-.996l2.764 2.765-3 3h-3.172l-3.654-3.654c.88-.42 1.778-.805 2.708-1.115zm-12.394 9.46c.424-.636.887-1.244 1.369-1.834l2.85 2.85c.187.188.442.293.707.293h3.586l3.707 3.707c.187.188.442.293.707.293h4c.265 0 .52-.105.707-.293l3.707-3.707h3.172l3.707 3.707c.187.188.442.293.707.293h.991c-1.538.642-3.223 1-4.991 1h-9.167c-4.458 0-8.921-.508-13.267-1.511l-4.932-1.139zm-3.074 5.788v-.223l5.117 1.182c4.493 1.037 9.108 1.562 13.716 1.562h9.167c3.362 0 6.458-1.125 8.962-3h.038v-.028c3.318-2.501 5.568-6.335 5.936-10.707l1.973.493c-.883 8.551-8.128 15.242-16.909 15.242h-7.151c-6.456 0-12.902-.794-19.16-2.358-.995-.249-1.689-1.138-1.689-2.163zm10 5.782v1.272c-.697-.458-1.341-.989-1.952-1.557.649.104 1.3.197 1.952.285zm3.539 7.739c-1.008-1.599-1.539-3.436-1.539-5.33v-2.164c1.33.146 2.664.267 4 .347v1.817c0 1.862.428 3.68 1.248 5.33zm22.398-4h-17.703c-.046 0-.091-.005-.137-.005-.058-.438-.097-.879-.097-1.325v-1.725c.949.033 1.899.055 2.849.055h7.151c2.919 0 5.676-.681 8.15-1.863l1.542.617c1.399.559 2.509 1.633 3.127 2.989-1.568.612-3.203 1.042-4.882 1.257zm11.063 4h-4v-5c0-.107-.018-.214-.051-.316-.729-2.187-2.374-3.931-4.514-4.787l-.036-.014c2.194-1.441 4.069-3.323 5.506-5.52 1.993 2.206 3.095 5.025 3.095 8.022zm11-30.001c-1.935-.017-3.846-.335-5.684-.947l-.632 1.896c1.041.347 2.104.609 3.18.784l-1.2 7.198c-.643 3.86-2.405 7.484-5.011 10.39-.566-2.545-1.827-4.885-3.704-6.781 1.301-2.57 2.051-5.466 2.051-8.539v-7c0-1.654 1.346-3 3-3h5c1.654 0 3 1.346 3 3z"/></svg>