<svg id="Layer_3" enable-background="new 0 0 64 64" height="512" viewBox="0 0 64 64" width="512" xmlns="http://www.w3.org/2000/svg"><path d="m50 38h10c1.105 0 2 .895 2 2 0 1.105-.895 2-2 2h-10" fill="#40372e"/><path d="m4 34v18c0 1.105.895 2 2 2h42c1.105 0 2-.895 2-2v-18" fill="#806e5c"/><path d="m47 52v-18h-43v18c0 1.105.895 2 2 2h39c1.105 0 2-.895 2-2z" fill="#ab927a"/><path d="m54 34h-50c-1.105 0-2-.895-2-2 0-1.105.895-2 2-2h50c1.105 0 2 .895 2 2 0 1.105-.895 2-2 2z" fill="#40372e"/><path d="m52 2v28h-16v-28c1.921 1.921 4.526 3 7.243 3h1.515c2.716 0 5.321-1.079 7.242-3z" fill="#ab927a"/><path d="m36 2v28h-16v-28c1.921 1.921 4.526 3 7.243 3h1.515c2.716 0 5.321-1.079 7.242-3z" fill="#806e5c"/><path d="m20 2v28h-16v-28c1.921 1.921 4.526 3 7.243 3h1.515c2.716 0 5.321-1.079 7.242-3z" fill="#ab927a"/><path d="m54 35h-50c-1.654 0-3-1.346-3-3s1.346-3 3-3h50c1.654 0 3 1.346 3 3s-1.346 3-3 3zm-50-4c-.551 0-1 .449-1 1s.449 1 1 1h50c.551 0 1-.449 1-1s-.449-1-1-1z"/><path d="m60 43h-10v-2h10c.551 0 1-.448 1-1s-.449-1-1-1h-10v-2h10c1.654 0 3 1.346 3 3s-1.346 3-3 3z"/><path d="m16 63c-4.962 0-9-4.037-9-9s4.038-9 9-9 9 4.037 9 9-4.038 9-9 9zm0-16c-3.86 0-7 3.141-7 7s3.14 7 7 7 7-3.141 7-7-3.14-7-7-7z"/><path d="m15 46h2v16h-2z"/><path d="m8 53h16v2h-16z"/><path d="m8 53.001h15.999v2h-15.999z" transform="matrix(.707 -.707 .707 .707 -33.498 27.13)"/><path d="m15 46h2v15.999h-2z" transform="matrix(.707 -.707 .707 .707 -33.497 27.129)"/><path d="m38 63c-4.962 0-9-4.037-9-9s4.038-9 9-9 9 4.037 9 9-4.038 9-9 9zm0-16c-3.86 0-7 3.141-7 7s3.14 7 7 7 7-3.141 7-7-3.14-7-7-7z"/><path d="m37 46h2v16h-2z"/><path d="m30 53h16v2h-16z"/><path d="m30 53.001h15.999v2h-15.999z" transform="matrix(.707 -.707 .707 .707 -27.054 42.686)"/><path d="m37 46h2v15.999h-2z" transform="matrix(.707 -.707 .707 .707 -27.053 42.685)"/><path d="m48 55h-42c-1.654 0-3-1.346-3-3v-18h2v18c0 .552.449 1 1 1h42c.551 0 1-.448 1-1v-18h2v18c0 1.654-1.346 3-3 3z"/><path d="m53 30h-2v-25.888c-1.833 1.228-3.987 1.888-6.243 1.888h-1.515c-2.68 0-5.218-.932-7.242-2.643-2.024 1.711-4.562 2.643-7.243 2.643h-1.515c-2.68 0-5.218-.932-7.242-2.643-2.024 1.711-4.562 2.643-7.243 2.643h-1.515c-2.255 0-4.409-.66-6.242-1.888v25.888h-2v-28c0-.404.244-.769.617-.924.374-.156.803-.07 1.09.217 1.746 1.746 4.067 2.707 6.536 2.707h1.515c2.469 0 4.79-.961 6.536-2.707.391-.391 1.023-.391 1.414 0 1.745 1.746 4.066 2.707 6.535 2.707h1.515c2.469 0 4.79-.961 6.536-2.707.391-.391 1.023-.391 1.414 0 1.745 1.746 4.066 2.707 6.535 2.707h1.515c2.469 0 4.79-.961 6.536-2.707.286-.287.715-.373 1.09-.217.372.155.616.52.616.924z"/><path d="m19 2h2v28h-2z"/><path d="m35 2h2v28h-2z"/></svg>